<?xml version="1.0" encoding="utf-8"?>
<!-- Generator: Adobe Illustrator 27.8.1, SVG Export Plug-In . SVG Version: 6.00 Build 0)  -->
<svg version="1.1" id="Layer_1" xmlns="http://www.w3.org/2000/svg" xmlns:xlink="http://www.w3.org/1999/xlink" x="0px" y="0px"
	 viewBox="0 0 459.6 114.2" style="enable-background:new 0 0 459.6 114.2;" xml:space="preserve">
<style type="text/css">
	.st0{display:none;}
</style>
<g id="design">
	<g>
		<path id="XMLID_121_" d="M8.1,31.3h152.5V5.4H8.1V31.3z M8.1,108.8h152.5V82.9H8.1V108.8z M15.5,25.2l13.4-13.8h21.7l7.9,13.8
			H41.9l-2.6-4.4c0,0-6.9,0-17.1,0v0.3c0,0,2.1,1.4,4.1,4.1H15.5z M25,17.4c6.2,0.4,13.2,1.8,13.2,1.8l-4.3-7c-2.1,1.8-6.4,4.1-9,5
			V17.4z M62.7,25.2V11.4h19c1.8,1.5,7.7,5.7,21.5,8.4v-0.3c0,0-3.4-2.8-5.9-8.1h7.6v13.8h-19c-1.8-1.5-7.7-5.7-21.5-8.4v0.3
			c0,0,3.4,2.8,5.9,8.1H62.7z M17.3,102.8V89h8.3v5.2h12.8V89h8.3v13.8h-8.3v-4.4C29.6,98.2,25.6,96,25.6,96v6.8L17.3,102.8
			L17.3,102.8z M52.2,89h29.4v4.1c-9-0.4-21.1-2.5-21.1-2.5v4.3c0,0,7.9-1,12.4-1v3.4c-4.6,0-12.4-0.8-12.4-0.8v4.6
			c0,0,12.1-2.5,21.1-2.9v4.6H52.2V89z M122.1,89h29.4v4.1c-9-0.4-21.1-2.5-21.1-2.5v4.3c0,0,7.9-1,12.4-1v3.4
			c-4.6,0-12.4-0.8-12.4-0.8v4.6c0,0,12.1-2.5,21.1-2.9v4.6h-29.4V89z M87.1,102.8V89h8.3c18.8,0,21.4,0.4,21.4,2.9
			c0,1.8-4.7,4.1-9,5.7v0.3h8.7v5c-9-0.7-21.1-3.3-21.1-3.3v3.3L87.1,102.8L87.1,102.8z M95.4,97.8v-7.2c5.4,0.6,10.8,1.7,10.8,6.3
			v0.8L95.4,97.8L95.4,97.8z M109.9,49c0-8.8-4-12.1-8.8-12.1s-8.8,4.8-8.8,10.1c0,4.5,2.5,8.4,5.1,9.5v0.1
			c-2.6,1.1-5.7,3.6-5.7,9.9c0,6.8,4.6,10.9,9.4,10.9s8.8-3.4,8.8-13v-0.3h-6.2c0,0,0,0.3,0,2.3c0,3.4-0.7,5.5-2.6,5.5
			c-2.1,0-3-1.5-3-5.5c0-3.5,1.2-7.2,3.6-7.2c2.8,0,4.6,0.4,4.6,0.4v-6.3c0,0-1.8,0.4-4.6,0.4c-2.3,0-3.2-4-3.2-6.9
			c0-3.2,1.2-4.7,2.6-4.7c1.8,0,2.6,1.5,2.6,4.7c0,1.8,0,2.1,0,2.1L109.9,49L109.9,49z M70.3,37.1v6.2l5.4-0.4l-0.4,34.2h7
			l-0.4-34.2l5.4,0.4v-6.2H70.3z M48.7,37.1v6.2l5.4-0.4l-0.4,34.2h7l-0.4-34.2l5.4,0.4v-6.2H48.7z M44.1,49c0-8.8-4-12.1-8.8-12.1
			s-8.8,4.8-8.8,10.1c0,4.5,2.5,8.4,5.1,9.5v0.1c-2.6,1.1-5.7,3.6-5.7,9.9c0,6.8,4.5,10.9,9.4,10.9s8.8-3.4,8.8-13v-0.3h-6.2
			c0,0,0,0.3,0,2.3c0,3.4-0.7,5.5-2.6,5.5c-2.1,0-3-1.5-3-5.5c0-3.5,1.2-7.2,3.6-7.2c2.8,0,4.5,0.4,4.5,0.4v-6.3
			c0,0-1.8,0.4-4.5,0.4c-2.3,0-3.2-4-3.2-6.9c0-3.2,1.2-4.7,2.6-4.7c1.8,0,2.6,1.5,2.6,4.7c0,1.8,0,2.1,0,2.1L44.1,49L44.1,49z
			 M8.1,77.1h14.2v-6.8l-8,1l0.8-34.2h-7V77.1z M152.9,53.7c-3-2.3-4.3-4.4-4.3-7.3s1.2-4.1,2.6-4.1c1.8,0,2.6,1.5,2.6,4.7
			c0,1.8,0,2.1,0,2.1h6.2c0-8.8-4-12.1-8.8-12.1s-8.8,4.4-8.8,9.5c0,5.9,2.9,9.1,6.4,12.3c3.6,3.3,5.5,5,5.5,8.4c0,3.5-1,5-3,5
			c-1.9,0-2.6-2.1-2.6-5.5c0-2.1,0-2.3,0-2.3h-6.2v0.3c0,9.5,4,13,8.8,13s9.4-3.7,9.4-10.3C160.7,60.7,156.9,56.8,152.9,53.7
			L152.9,53.7z M135.6,70.6c0-10.3-2.5-11.6-5.1-12.8v-0.1c2.6-1.1,5.1-5.4,5.1-9.9c0-5.9-4.1-10.6-10.2-10.6h-7.9v40h6.2l-0.4-16.6
			h2.1c3,0,4,3.3,4,8.7c0,3.2-0.4,7.9-0.4,7.9h6.6C135.6,77.1,135.6,78.6,135.6,70.6L135.6,70.6z M125.4,41.9c2.6,0,4,2.6,4,5.8
			c0,2.9-1,7.6-4,7.6h-2.1V41.9H125.4z M110.9,11.4h12c0,0,5.5,5,15.2,7.7l2.4-7.7h11.3c0,0-4.3,4.7-12,7.7l2.2,6.1h-21.7l2.2-6.1
			c0,0-4-1.1-11.6-1.9L110.9,11.4L110.9,11.4z"/>
		<g>
			<path d="M293.2,49.2c5.6-9.1,11.4-12.2,19.8-12.5c-5.2-1-9.2-2.4-14.4-2.4c-7.7,0-11.6,4.7-11.6,11c0,3.3,1,6.5,3.1,8.8
				L293.2,49.2z"/>
			<path d="M169.4,5.4v103.5h282.1V5.4H169.4z M248.1,89.4c-5.8,0-6.6-3.7-3.4-7.6c-7.2,4.9-12.4,6.4-18.8,6.4c-3.6,0-5.8-0.6-7-1.5
				c-3.7,1.9-8.4,3-14.4,3c-8.9,0-15.7-4.7-15.7-13.2c0-14.4,16.8-20.5,29.1-20c-8.3,2.8-18,8.5-18,17.4c0,4.5,2.6,8.1,9.9,8.1
				c5.9,0,12.4-1.3,20.9-9.6c-2.3,5.5-5.3,10-9.8,13c5.7,0,10.2-1,18.2-12.8l3.6-5.4c0.4-0.6,0.8-1.2,1.3-1.8c-3.7,2-7.5,3.1-10.2,3
				c3-1.8,5.9-5.3,9.9-11.5l4-6.2c2.4-3.8,5.5-6.7,8.5-8.7c-0.8,0-1.7,0.1-2.6,0.1h-4.5c-8.4,0-13.6,0-17.6,1.8
				c1.3-2.5,3-4.9,7.2-6.4c-10.2-0.4-16.3-3.3-24.9-3.3c-9.2,0-12.4,3.9-12.4,8c0,2.5,1.5,5.1,3.6,7.2C211.1,47,218,46,224.6,46
				c8.4,0,10.3,2.4,10.3,5c0,1.4-0.8,3-2.1,4.7c3.5-2,7.3-5.4,10.4-9.7c-0.6,3.8-3.4,14.1-14.6,19.4c-5.7,2.8-9.5,3.9-16.8,4.5
				c6.5-2.9,11.5-9.5,11.5-14c0-2.1-1.8-3.3-5.6-3.3c-11.2,0-23.2,4.5-29.6,15.5c2.4-8.5,7.9-14.1,14.6-17.5c-3-2-5.6-5.5-5.6-9.7
				c0-9.8,8.5-15.5,19.5-15.5c3.5,0,6.7,0.6,10.7,1.6l7.5,1.8c2.5,0.6,5.4,1.1,8.8,1.1c5.1,0,9.3-2.3,14.2-6
				c-1.4,4.2-3.6,8.8-9,11.9l3.4-0.3c8.9-0.7,15.3-2.4,21.7-11.6c0,5.2-1.2,10.8-5.7,14.4c3.4-0.4,7.5-0.3,12.1,0.6
				c-14.2,4.4-17.7,7.2-26.6,19.5c4.1-2.5,7.8-3.3,11.4-3.2c-2.7,1.5-4.4,3-6,4.8c-5.3,5.8-8.4,12.6-14.1,18.2l10.3-6.5
				c-4,6.4-4.6,9.2-1.9,9.2c3.6,0,9.1-2.3,14-6.9C265.2,80.3,259.9,89.4,248.1,89.4z M292.4,81.4l-1.1-1.2l-0.9,0.6
				c-7.9,5.7-13.4,8.6-20.2,8.6c-4.6,0-7-2.5-7.8-4.3c0.7,0.2,1.7,0.3,2.9,0.3c5.7,0,10.2-0.9,18.2-12.7l3.6-5.4
				c0.4-0.6,0.8-1.2,1.3-1.8c-3.7,2-7.5,3.1-10.2,3c3-1.8,5.8-5.1,9.9-11.5l0.7-1c-4.5-2-7.1-7.6-7.1-13c0-11,8.8-17.7,19.7-17.7
				c3.5,0,6.7,0.6,10.7,1.6l7.5,1.8c2.5,0.6,5.4,1.1,8.8,1.1c5.1,0,9.3-2.3,14.1-6c-1.5,4.4-4.4,8.6-10,12l4.3-0.3
				c7.8-0.5,18-3.5,25-11.7c-1.7,10.8-9.3,18.3-25.1,19.4l-7.5,0.5c-4.6,0.3-11,0.5-15,2.9c1.1-2.2,4.1-6.1,7.5-8.1
				c-5.5-0.4-9.9,2.1-12.9,4.7c-3.6,3-7,9.3-10.9,15.1c4.4-2.8,8.7-4.2,12.4-4.1c-2.7,1.5-5.2,3.9-6.8,5.6
				c-5.3,5.8-8.4,12.6-14.1,18.2l10.3-6.5l1.4,1.8c4.8,6.4,12.6,8.3,19.7,8.3c11.6,0,22.9-7.9,27.5-18.6c-6.1,6-14.2,10-27.8,12.8
				c6.5-2.9,12.7-9.1,12.7-13.4c0-2.4-0.8-4.4-5.7-4.4c-3.3,0-9.2,1.3-17.9,9.1c4.8-10.4,14.6-15.8,24.9-15.8c8.4,0,9.5,3.3,9.5,6.5
				c0,1.5-0.6,3-1.8,4.4c4.2-2.2,9.1-5.7,11.1-6.9c-2.4,19.5-15.1,34.1-38.5,34.1C307.4,89.4,297.9,87.5,292.4,81.4z M352.4,88.6
				c-6.6,0-10.4-2.3-12-5.3c0.7,0.2,2.9,1.3,6.1,1.3c5.7,0,11.8-2.4,18.2-11.9l3.6-5.4c0.4-0.6,0.8-1.2,1.3-1.8
				c-3.7,2-7.5,3.1-10.2,3c3-1.8,5.6-5.5,9.9-11.5l3.4-4.9c-4.9-0.8-9.7-6-9.7-12c0-9,7-14.8,19.8-14.8c3.5,0,8.8,0.9,12.7,1.8
				l7.6,1.7c2.5,0.6,5.4,1.1,8.8,1.1c5.1,0,9.3-2.3,14.1-6c-1.8,5.4-7.1,13.9-20.7,13.9c-9,0-15.5-3.4-26-3.4
				c-6.3,0-11.5,2.7-11.5,8.1c0,2.5,1.6,5.9,5.6,8.7l1.4-2c4.8-7,13.3-10.3,22.5-8.6c-8.6,3.2-11.3,6.6-15.2,12.9l-3.9,6.1
				c4.9-3,10.3-3.8,14.2-3.6c-2.7,1.5-4.9,3.1-6.5,4.9c-7,7.6-11.4,16-17,21.8C364.8,86.7,359,88.6,352.4,88.6z M405.7,81.1
				c6.1,0,11.3-1.3,15.2-3.4c4.1-2.3,8-5.8,10.8-10.1c-0.6,5.1-2.5,11.8-6.1,15.5c-4.3,4.5-9.4,6.4-18.5,6.4c-2.4,0-6.6-0.4-9.4-1
				l-6.3-1.3c-2.6-0.5-6-1.1-9.2-1.1c-4.5,0-9.2,1.4-12.3,3.3c2.2-4.9,6.9-9.9,16.3-10.8l4.1-0.4c14.3-1.5,23.4-5,28.7-15.4
				c-5.8,5-15.8,9.4-26.5,9.9c11.5-4.4,23.1-10.2,23.1-20c0-3.3-2.2-6.2-8.3-6.2c-5.3,0-10.9,1.8-20.4,6.7
				c7.9-10.7,18.3-13.4,26.8-13.4c8,0,11.7,3.2,11.7,8.2c0,2.1-0.4,3.8-1.2,5.3c2.9-1.8,5.9-4,9-7.2c-0.6,10-3.5,17.1-7.4,21.7
				c-6.1,7.2-15.1,12.3-28.6,12.9C400,81.1,403,81.1,405.7,81.1z"/>
		</g>
	</g>
</g>
<g id="guides" class="st0">
</g>
</svg>
