<?xml version="1.0" encoding="utf-8"?>
<!-- Generator: Adobe Illustrator 24.3.0, SVG Export Plug-In . SVG Version: 6.00 Build 0)  -->
<svg version="1.1" xmlns="http://www.w3.org/2000/svg" xmlns:xlink="http://www.w3.org/1999/xlink" x="0px" y="0px"
	 viewBox="0 0 459.57 114.2" style="enable-background:new 0 0 459.57 114.2;" xml:space="preserve">
<style type="text/css">
	.st0{fill:#E1E1E1;}
	.st1{fill:#00FF00;}
	.st2{fill:none;stroke:#000000;stroke-width:0.5;stroke-miterlimit:10;}
	.st3{fill:#FFFFFF;}
	.st4{fill:#0000FF;}
	.st5{fill:#FF0000;}
	.st6{fill:none;stroke:#1D1D1B;stroke-width:1.4057;stroke-linecap:round;}
	.st7{fill:#1D1D1B;}
	.st8{fill:none;stroke:#000000;stroke-width:0.9754;stroke-linecap:round;stroke-linejoin:round;stroke-miterlimit:3;}
	.st9{fill:none;stroke:#00FF00;stroke-width:2;stroke-linecap:round;stroke-linejoin:round;stroke-miterlimit:3;}
	.st10{fill:none;stroke:#000000;stroke-linecap:round;stroke-linejoin:round;stroke-miterlimit:3;}
	.st11{clip-path:url(#SVGID_12_);}
	.st12{stroke:#FFFFFF;stroke-width:1.434;stroke-miterlimit:10;}
	.st13{fill:none;}
	.st14{fill:#231F20;}
	.st15{clip-path:url(#SVGID_19_);}
	.st16{fill:none;stroke:#231F20;stroke-width:0.75;stroke-miterlimit:10;}
	.st17{fill:none;stroke:#00FF00;stroke-width:2.0475;stroke-linecap:round;stroke-linejoin:round;stroke-miterlimit:3;}
	.st18{fill:none;stroke:#000000;stroke-width:0.9287;stroke-linecap:round;stroke-linejoin:round;stroke-miterlimit:3;}
	.st19{fill:none;stroke:#000000;stroke-width:0.3977;stroke-miterlimit:3;}
	.st20{fill:none;stroke:#000000;stroke-width:0.75;stroke-miterlimit:10;}
	.st21{fill:#008B4B;}
	.st22{fill:#F77900;}
	.st23{display:none;}
	.st24{display:inline;}
	.st25{fill:none;stroke:#FF00FF;stroke-miterlimit:10;}
	.st26{display:inline;fill:none;stroke:#FF00FF;stroke-miterlimit:10;}
</style>
<g id="design">
	<g>
		<path id="XMLID_121_" class="st21" d="M8.08,31.3h152.46V5.36H8.08V31.3z M8.08,108.84h152.46V82.9H8.08V108.84z M15.53,25.23
			l13.38-13.8h21.66l7.86,13.8H41.89l-2.62-4.42c0,0-6.9,0-17.11,0v0.28c0,0,2.07,1.38,4.14,4.14H15.53z M25.05,17.37
			c6.21,0.41,13.25,1.79,13.25,1.79l-4.28-7.04c-2.07,1.79-6.35,4.14-8.97,4.97V17.37z M62.72,25.23v-13.8h19.04
			c1.79,1.52,7.73,5.66,21.52,8.42v-0.28c0,0-3.45-2.76-5.93-8.14h7.59v13.8H85.9c-1.79-1.52-7.73-5.66-21.52-8.42v0.28
			c0,0,3.45,2.76,5.93,8.14H62.72z M17.33,102.77v-13.8h8.28v5.24h12.83v-5.24h8.28v13.8h-8.28v-4.42
			c-8.83-0.14-12.83-2.35-12.83-2.35v6.76H17.33z M52.23,88.97h29.39v4.14c-8.97-0.41-21.11-2.48-21.11-2.48v4.28
			c0,0,7.86-0.97,12.42-0.97v3.45c-4.55,0-12.42-0.83-12.42-0.83v4.55c0,0,12.14-2.48,21.11-2.9v4.55H52.23V88.97z M122.05,88.97
			h29.39v4.14c-8.97-0.41-21.11-2.48-21.11-2.48v4.28c0,0,7.86-0.97,12.42-0.97v3.45c-4.55,0-12.42-0.83-12.42-0.83v4.55
			c0,0,12.14-2.48,21.11-2.9v4.55h-29.39V88.97z M87.14,102.77v-13.8h8.28c18.76,0,21.39,0.41,21.39,2.9c0,1.79-4.69,4.14-8.97,5.66
			v0.28h8.69v4.97c-8.97-0.69-21.11-3.31-21.11-3.31v3.31H87.14z M95.42,97.8v-7.17c5.38,0.55,10.76,1.66,10.76,6.35v0.83H95.42z
			 M109.91,48.96c0-8.83-4-12.14-8.83-12.14s-8.83,4.83-8.83,10.07c0,4.55,2.48,8.42,5.1,9.52v0.14c-2.62,1.1-5.66,3.59-5.66,9.93
			c0,6.76,4.55,10.9,9.38,10.9s8.83-3.45,8.83-12.97v-0.28h-6.21c0,0,0,0.28,0,2.35c0,3.45-0.69,5.52-2.62,5.52
			c-2.07,0-3.04-1.52-3.04-5.52c0-3.45,1.24-7.17,3.59-7.17c2.76,0,4.55,0.41,4.55,0.41v-6.35c0,0-1.79,0.41-4.55,0.41
			c-2.35,0-3.17-4-3.17-6.9c0-3.17,1.24-4.69,2.62-4.69c1.79,0,2.62,1.52,2.62,4.69c0,1.79,0,2.07,0,2.07H109.91z M70.31,37.09v6.21
			l5.38-0.41l-0.41,34.22h7.04L81.9,42.89l5.38,0.41v-6.21H70.31z M48.65,37.09v6.21l5.38-0.41l-0.41,34.22h7.04l-0.41-34.22
			l5.38,0.41v-6.21H48.65z M44.09,48.96c0-8.83-4-12.14-8.83-12.14s-8.83,4.83-8.83,10.07c0,4.55,2.48,8.42,5.1,9.52v0.14
			c-2.62,1.1-5.66,3.59-5.66,9.93c0,6.76,4.55,10.9,9.38,10.9s8.83-3.45,8.83-12.97v-0.28h-6.21c0,0,0,0.28,0,2.35
			c0,3.45-0.69,5.52-2.62,5.52c-2.07,0-3.04-1.52-3.04-5.52c0-3.45,1.24-7.17,3.59-7.17c2.76,0,4.55,0.41,4.55,0.41v-6.35
			c0,0-1.79,0.41-4.55,0.41c-2.35,0-3.17-4-3.17-6.9c0-3.17,1.24-4.69,2.62-4.69c1.79,0,2.62,1.52,2.62,4.69c0,1.79,0,2.07,0,2.07
			H44.09z M8.08,77.11h14.21v-6.76l-8,0.97l0.83-34.22H8.08V77.11z M152.95,53.65c-3.04-2.35-4.28-4.42-4.28-7.31
			s1.24-4.14,2.62-4.14c1.79,0,2.62,1.52,2.62,4.69c0,1.79,0,2.07,0,2.07h6.21c0-8.83-4-12.14-8.83-12.14s-8.83,4.42-8.83,9.52
			c0,5.93,2.9,9.11,6.35,12.28c3.59,3.31,5.52,4.97,5.52,8.42S153.37,72,151.3,72c-1.93,0-2.62-2.07-2.62-5.52c0-2.07,0-2.35,0-2.35
			h-6.21v0.28c0,9.52,4,12.97,8.83,12.97s9.38-3.73,9.38-10.35C160.68,60.69,156.95,56.82,152.95,53.65L152.95,53.65z M135.57,70.62
			c0-10.35-2.48-11.59-5.1-12.83v-0.14c2.62-1.1,5.1-5.38,5.1-9.93c0-5.93-4.14-10.62-10.21-10.62h-7.86v40.01h6.21l-0.41-16.56
			h2.07c3.04,0,4,3.31,4,8.69c0,3.17-0.41,7.86-0.41,7.86h6.62C135.57,77.11,135.57,78.62,135.57,70.62L135.57,70.62z M125.36,41.92
			c2.62,0,4,2.62,4,5.79c0,2.9-0.97,7.59-4,7.59h-2.07V41.92H125.36z M110.87,11.43h12c0,0,5.52,4.97,15.18,7.73l2.35-7.73h11.31
			c0,0-4.28,4.69-12,7.73l2.21,6.07h-21.66l2.21-6.07c0,0-4-1.1-11.59-1.93V11.43z"/>
		<g>
			<path class="st22" d="M293.22,49.24c5.61-9.06,11.37-12.19,19.82-12.54c-5.21-1-9.17-2.38-14.35-2.38
				c-7.71,0-11.61,4.69-11.61,10.98c0,3.29,0.99,6.5,3.12,8.8L293.22,49.24z"/>
			<path class="st22" d="M169.39,5.36v103.48h282.1V5.36H169.39z M248.15,89.39c-5.78,0-6.56-3.69-3.43-7.56
				c-7.18,4.91-12.4,6.39-18.81,6.39c-3.61,0-5.78-0.61-7.01-1.47c-3.72,1.92-8.39,2.98-14.39,2.98c-8.93,0-15.67-4.69-15.67-13.16
				c0-14.42,16.76-20.45,29.14-19.95c-8.34,2.77-18.03,8.55-18.03,17.35c0,4.53,2.61,8.13,9.94,8.13c5.9,0,12.38-1.26,20.89-9.55
				c-2.32,5.47-5.29,9.97-9.83,12.99c5.72,0,10.18-1.02,18.17-12.82l3.62-5.36c0.42-0.6,0.84-1.2,1.28-1.77
				c-3.68,2.01-7.47,3.14-10.2,3.03c3.03-1.76,5.9-5.28,9.86-11.48l3.96-6.2c2.41-3.79,5.5-6.74,8.49-8.71
				c-0.83,0.05-1.69,0.08-2.59,0.08h-4.46c-8.42,0-13.56,0-17.6,1.76c1.26-2.51,3.03-4.94,7.16-6.37
				c-10.19-0.42-16.34-3.35-24.85-3.35c-9.18,0-12.38,3.86-12.38,7.96c0,2.54,1.49,5.08,3.65,7.21c6.07-2.52,12.95-3.52,19.52-3.52
				c8.42,0,10.28,2.43,10.28,5.03c0,1.37-0.75,3.03-2.1,4.68c3.51-2,7.27-5.43,10.44-9.71c-0.59,3.77-3.37,14.08-14.57,19.44
				c-5.73,2.77-9.52,3.94-16.76,4.53c6.49-2.93,11.46-9.55,11.46-14c0-2.09-1.77-3.35-5.64-3.35c-11.2,0-23.25,4.53-29.65,15.5
				c2.39-8.52,7.86-14.08,14.63-17.5c-2.97-1.99-5.62-5.5-5.62-9.74c0-9.81,8.51-15.5,19.46-15.5c3.54,0,6.74,0.59,10.7,1.59
				l7.5,1.84c2.53,0.59,5.39,1.09,8.84,1.09c5.14,0,9.26-2.26,14.15-6.03c-1.4,4.25-3.59,8.76-9,11.91l3.44-0.26
				c8.93-0.67,15.33-2.43,21.73-11.65c0,5.23-1.22,10.75-5.74,14.38c3.4-0.37,7.48-0.33,12.06,0.63
				c-14.17,4.36-17.73,7.22-26.61,19.47c4.12-2.52,7.84-3.34,11.45-3.21c-2.7,1.51-4.38,3.02-5.98,4.78
				c-5.33,5.84-8.39,12.57-14.1,18.2l10.31-6.47c-4.04,6.37-4.55,9.22-1.85,9.22c3.62,0,9.1-2.35,13.98-6.87
				C265.24,80.34,259.94,89.39,248.15,89.39z M292.37,81.43l-1.09-1.2l-0.85,0.61c-7.92,5.7-13.39,8.55-20.22,8.55
				c-4.63,0-6.99-2.51-7.83-4.27c0.67,0.25,1.69,0.34,2.86,0.34c5.73,0,10.19-0.92,18.19-12.74l3.62-5.36
				c0.42-0.6,0.84-1.2,1.28-1.77c-3.68,2.01-7.48,3.14-10.21,3.03c3.03-1.76,5.81-5.11,9.86-11.48l0.66-1.04
				c-4.48-2.05-7.14-7.59-7.14-13.04c0-10.98,8.76-17.68,19.71-17.68c3.54,0,6.74,0.59,10.7,1.59l7.5,1.84
				c2.53,0.59,5.39,1.09,8.84,1.09c5.14,0,9.27-2.26,14.15-6.03c-1.46,4.44-4.37,8.58-10.04,12.02l4.31-0.29
				c7.75-0.5,18.03-3.52,25.02-11.73c-1.68,10.81-9.26,18.27-25.1,19.36l-7.5,0.5c-4.63,0.33-10.95,0.5-14.99,2.93
				c1.08-2.15,4.07-6.14,7.5-8.14c-5.5-0.36-9.87,2.1-12.89,4.71c-3.58,3.04-7.03,9.31-10.93,15.12c4.39-2.81,8.7-4.2,12.36-4.06
				c-2.7,1.51-5.22,3.86-6.82,5.62c-5.33,5.84-8.39,12.57-14.1,18.2l10.31-6.47l1.43,1.84c4.8,6.37,12.63,8.3,19.71,8.3
				c11.57,0,22.87-7.93,27.45-18.63c-6.13,5.99-14.23,10.01-27.79,12.85c6.49-2.93,12.72-9.05,12.72-13.41
				c0-2.43-0.76-4.44-5.73-4.44c-3.29,0-9.18,1.34-17.94,9.05c4.8-10.39,14.57-15.84,24.93-15.84c8.42,0,9.52,3.27,9.52,6.45
				c0,1.48-0.61,2.97-1.79,4.37c4.2-2.21,9.1-5.66,11.14-6.89c-2.36,19.53-15.08,34.11-38.49,34.11
				C307.44,89.39,297.93,87.54,292.37,81.43z M352.42,88.63c-6.65,0-10.36-2.35-12.05-5.28c0.67,0.25,2.86,1.26,6.15,1.26
				c5.73,0,11.79-2.43,18.19-11.9l3.62-5.36c0.42-0.6,0.84-1.2,1.28-1.77c-3.68,2.01-7.47,3.14-10.2,3.03
				c3.03-1.76,5.64-5.45,9.86-11.48l3.41-4.89c-4.87-0.85-9.73-5.99-9.73-12.04c0-9.05,6.99-14.83,19.79-14.83
				c3.54,0,8.76,0.92,12.72,1.76l7.58,1.68c2.53,0.59,5.39,1.09,8.84,1.09c5.14,0,9.26-2.26,14.15-6.03
				c-1.77,5.36-7.08,13.91-20.72,13.91c-9.01,0-15.5-3.44-26.03-3.44c-6.32,0-11.45,2.68-11.45,8.13c0,2.5,1.62,5.91,5.61,8.69
				l1.38-1.98c4.8-6.96,13.31-10.31,22.49-8.63c-8.59,3.19-11.29,6.62-15.25,12.91l-3.87,6.06c4.92-2.99,10.32-3.78,14.23-3.63
				c-2.7,1.51-4.89,3.1-6.49,4.86c-6.99,7.63-11.37,16.01-17.01,21.79C364.8,86.71,358.99,88.63,352.42,88.63z M405.74,81.09
				c6.15,0,11.29-1.26,15.16-3.44c4.13-2.35,8-5.78,10.78-10.14c-0.59,5.11-2.53,11.82-6.06,15.51c-4.3,4.53-9.35,6.37-18.45,6.37
				c-2.44,0-6.57-0.42-9.35-1.01l-6.32-1.26c-2.61-0.5-5.98-1.09-9.18-1.09c-4.47,0-9.18,1.42-12.3,3.35
				c2.19-4.94,6.91-9.89,16.34-10.81l4.13-0.42c14.3-1.47,23.43-5.01,28.73-15.42c-5.79,5.03-15.79,9.45-26.54,9.88
				c11.54-4.44,23.08-10.22,23.08-20.03c0-3.27-2.19-6.2-8.34-6.2c-5.31,0-10.87,1.76-20.38,6.71
				c7.92-10.73,18.28-13.41,26.78-13.41c8,0,11.71,3.18,11.71,8.21c0,2.12-0.41,3.83-1.2,5.34c2.87-1.82,5.87-4,8.95-7.18
				c-0.59,9.97-3.45,17.1-7.41,21.71c-6.14,7.15-15.07,12.3-28.65,12.93C399.96,81.09,403,81.09,405.74,81.09z"/>
		</g>
	</g>
</g>
<g id="guides" class="st23">
</g>
</svg>
