<svg width="973" height="66" viewBox="0 0 973 66" fill="none" xmlns="http://www.w3.org/2000/svg">
<path d="M16.1843 28.8885C12.5592 21.6716 8.94623 15.417 1 9.25318L1.3601 9.09168C6.41352 12.4528 13.9996 18.3778 19.0651 23.7476L19.4252 23.6668C15.6201 18.2163 11.647 12.7657 11.635 7.38923C11.635 5.22248 13.6035 3.69498 15.5841 3.69162C24.7667 3.67816 24.4546 19.4847 24.4666 24.0571C24.5146 39.9444 23.6503 50.4585 18.813 63.8661L18.993 63.9469C24.3946 62.7357 32.1487 62.6415 37.5502 63.9166L37.7303 63.8359C30.1442 58.2306 26.8552 40.8225 26.8312 34.2449C26.8072 25.9816 31.4285 2.38282 57.1877 2.33908C73.2242 2.31216 74.5086 11.2988 74.5326 16.5138C74.5806 32.4819 59.4924 48.7157 48.7254 63.7383L49.0855 63.819C53.5747 58.9169 63.0934 49.5938 70.2954 44.9272L70.6555 45.0887C63.2854 51.441 59.1563 57.2246 59.1683 60.8347C59.1683 62.2781 59.9005 65.0067 64.0417 65C76.2971 64.9798 75.889 50.4551 78.7218 34.726C81.9147 16.1034 89.9809 2.36936 107.818 2.34245C113.94 2.33235 116.832 4.65387 116.844 7.78625C116.868 14.4446 108.238 22.967 89.1647 31.8224L89.3447 31.9032C97.267 30.0459 106.089 29.0669 113.471 28.4949L113.652 28.5756C102.668 32.2834 90.4371 39.046 85.4076 42.7437L85.5877 42.8244C94.7703 40.1597 108.094 37.172 118.537 35.5503L118.717 35.6311C101.612 39.83 81.8186 48.6888 81.8426 57.6788C81.8546 61.6119 85.6477 64.9764 95.5625 64.9596C123.854 64.9125 131.104 19.8043 134.297 3.50994H134.657C131.645 21.8096 129.016 44.7624 125.283 63.7046L125.463 63.7854C131.945 62.7323 140.599 62.7996 147.081 63.7518L147.261 63.671C140.203 52.3696 137.646 43.467 137.622 33.0336C137.598 25.7326 138.438 2.29871 162.757 2.25833C171.952 2.24487 174.305 6.17127 174.317 9.70066C174.353 22.4589 152.05 35.0927 132.257 43.9515L132.437 44.0323C146.301 39.2748 162.133 34.7563 178.53 31.5196L178.71 31.6004C168.087 34.9884 158.556 39.4969 150.454 44.1635L150.634 44.2442C160.897 41.418 172.78 39.1537 183.223 37.532L183.403 37.6128C165.758 42.2962 151.366 49.0589 151.39 57.164C151.402 61.7364 157.716 64.8587 167.271 64.8419C186.008 64.8116 193.018 58.2205 192.994 50.4383C192.958 39.0427 179.418 28.7136 179.382 17.1598C179.358 7.77279 189.789 2.21796 205.285 2.19104C214.66 2.17758 219.881 4.2535 219.893 7.30176C219.905 12.9171 208.394 16.4667 189.297 20.3494L189.477 20.4301C200.46 18.6469 210.915 17.826 222.438 17.0858L222.618 17.1665C210.915 18.9497 198.671 21.9408 190.749 24.1984L190.929 24.2791C198.491 23.3842 217.409 22.3109 230.024 22.2907V22.3715C205.897 27.065 197.111 41.7646 197.147 53.1569C197.147 56.3666 198.803 64.788 206.185 64.7779C218.441 64.7577 221.634 50.0682 233.841 32.6366C240.479 23.078 251.438 12.547 264.57 3.37872L264.39 3.29797C256.468 3.39218 253.215 3.15666 245.28 2.12375L245.1 2.2045C236.842 13.691 228.968 28.8717 229.004 42.7538C229.028 51.7404 234.117 64.7308 248.353 64.7073C259.336 64.6905 264.354 52.7262 264.882 47.9082H265.242C265.434 52.7228 267.631 64.6736 279.886 64.6534C293.222 64.6333 296.787 52.669 296.763 45.8491C296.739 37.0206 289.501 29.2519 273.104 29.2788C256.888 29.3057 240.683 34.4669 215.848 43.9751L215.488 43.8136C234.741 36.4015 254.535 27.462 265.854 16.7695L266.214 16.8503C263.213 37.3167 276.045 50.9363 302.56 61.0029C303.809 57.7898 304.157 53.6986 304.145 50.4888C304.121 40.7788 297.783 31.7215 287.124 23.475L287.484 23.3135C294.71 28.1181 303.365 31.8729 312.199 31.8594C317.961 31.8493 320.842 30.4026 320.842 27.5932C320.818 21.9778 313.399 10.1919 308.874 2.01609H309.234C314.3 9.87225 322.99 23.4986 338.667 23.4717C353.083 23.4481 363.321 13.5598 374.821 1.90842H375.181C364.762 14.2024 359.937 25.2818 360.141 34.1103C367.511 29.3629 373.272 26.3853 381.002 23.1655L381.363 23.327C361.041 35.3148 354.235 48.968 351.75 61.2485L352.11 61.3293C354.439 56.9924 357.848 52.6522 363.249 49.0353L363.61 49.1968C362.349 50.8051 361.641 53.4529 361.653 55.8586C361.665 60.1113 364.378 64.5189 370.331 64.5088C374.833 64.502 376.993 61.4471 376.981 56.8747C376.945 45.7213 361.413 31.3817 335.822 31.4254C314.564 31.459 307.938 44.6312 307.95 51.2122C307.95 53.0593 308.322 54.5834 308.682 55.5457C315.332 50.7209 323.074 46.2125 330.624 42.7538L330.984 42.9119C323.962 46.6936 315.884 53.4496 315.896 58.9842C315.896 61.3899 318.081 64.5962 324.022 64.5895C339.879 64.5626 336.386 42.9052 335.654 38.252H336.014C338.571 48.8402 341.655 56.2186 347.441 63.348M393.81 3.07591L418.369 22.1326L418.729 21.9711C414.216 17.3247 407.158 9.55262 407.146 4.98023C407.146 3.61424 407.854 1.84786 412.187 1.84113C429.124 1.81422 435.306 22.9872 435.33 28.1214C435.342 32.6164 434.465 39.5978 420.77 39.6214C398.611 39.6584 384.856 20.6623 384.831 11.3526C384.831 8.38513 385.9 7.09988 388.781 7.09315C401.396 7.07297 424.887 29.3428 438.258 44.4057C444.224 51.0574 449.11 57.0664 452.542 63.1596H452.362C437.01 50.0245 418.057 38.7432 396.619 38.7769C386.176 38.7937 380.234 42.9758 380.258 48.5105C380.282 56.0537 391.301 64.4617 406.245 64.4381C412.907 64.428 413.796 61.0568 413.796 58.8093C413.796 56.4036 412.703 54.0754 410.171 50.2297L410.531 50.0682C414.336 55.6803 420.662 64.4146 428.416 64.4011C441.211 64.3809 442.244 47.1276 442.22 42.2323C442.196 35.5739 440.731 26.9102 436.026 19.2929L436.386 19.1314C439.279 22.9804 443.792 25.8605 448.113 25.8537C451.174 25.8504 451.354 24.4036 451.354 23.3606C451.342 18.7075 441.931 7.40942 436.518 1.80076H436.878C443.564 8.61056 454.595 20.6286 472.432 20.5984C490.989 20.5681 501.048 8.5971 505.345 1.68636H505.705C497.279 16.2245 491.926 32.8419 491.974 47.9284C491.986 53.1434 492.37 57.8773 494.542 63.0889L494.722 63.1697C499.044 62.4396 509.306 62.4228 513.099 63.1394L513.279 63.0587C513.784 50.7815 495.875 25.773 471.364 25.8134C453.887 25.8403 447.237 33.6359 447.261 41.741C447.297 52.9752 457.596 64.354 468.771 64.3338C472.372 64.3271 473.812 63.1226 473.8 59.5125C473.776 51.8884 471.232 42.747 469.227 36.4116L469.587 36.3309C472.132 43.79 480.282 58.7016 483.895 63.1091H484.075C499.344 47.0368 516.94 28.1484 522.114 10.9691H522.294L533.877 28.8448H534.057C535.666 22.3412 534.729 13.2772 532.545 6.861H532.725C536.89 16.0832 548.497 41.1792 568.867 41.1455C581.663 41.1253 586.14 33.175 586.116 26.9136C586.092 17.0421 572.348 1.5787 536.854 1.6359C520.457 1.66281 509.114 5.77426 509.138 13.3949C509.162 21.4193 520.53 27.2568 530.108 36.3107C537.154 42.959 542.592 52.5782 542.616 63.0116L542.436 63.0923C537.934 62.6987 533.241 62.7054 528.56 63.1159L528.38 63.0351C528.332 44.6581 542.688 25.6182 563.946 25.5846C568.267 25.5779 569.899 26.9405 569.899 28.865C569.923 37.7709 534.117 52.6757 519.545 58.7958L519.905 58.9573C545.292 51.0507 566.898 46.0409 598.227 39.332L598.407 39.4128C574.821 45.4689 570.872 50.6907 570.884 54.4623C570.896 60.4814 579.022 64.1589 594.518 64.1319C626.051 64.0815 646.709 43.1844 646.649 25.45C646.613 11.9684 640.275 1.46767 619.737 1.50131C600.46 1.53159 590.761 12.7826 590.785 20.0062C590.797 25.5408 594.602 32.8385 605.237 32.8217C615.32 32.8049 621.082 28.4613 628.788 16.4129H629.148L607.446 51.5116L607.626 51.5924C627.768 38.4808 642.868 25.7764 654.319 1.44412H654.679C651.87 24.4777 669.719 29.3428 717.985 22.6036V22.5229C709.138 17.7217 708.226 11.0633 709.09 1.35328H708.73C702.825 14.845 676.849 63.994 653.059 64.0344C643.864 64.0478 642.232 56.7502 642.22 53.9408C642.208 49.1262 648.113 37.7204 662.709 37.6969C680.546 37.67 699.164 56.1748 705.129 62.7458H705.489C699.884 56.0941 692.826 46.7979 692.814 40.698C692.814 37.7272 694.95 34.2752 702.344 34.2617C714.06 34.2415 721.118 46.2663 723.867 63.9166H724.227C724.155 40.7249 722.486 24.6795 723.506 1.32972C725.199 23.2328 718.945 42.7437 739.543 62.6886H739.723C744.044 62.2007 749.806 61.9484 755.219 62.7424L755.399 62.6616C739.879 55.1453 728.656 37.1081 728.632 27.1592C728.62 21.6212 732.017 12.9508 748.053 12.9239C770.752 12.8869 776.933 32.2161 776.969 43.3695C776.993 50.6705 773.788 63.8359 764.594 63.8527C759.372 63.8628 755.747 58.6511 755.711 47.0974C755.663 30.7289 762.241 1.26916 775.577 1.24897C782.779 1.23552 784.784 9.17916 784.808 15.6761C784.856 32.8486 781.483 47.9385 776.297 62.6314L776.477 62.7121C782.959 61.659 793.054 61.7229 799.356 62.6751L799.536 62.5944C793.366 49.4458 788.829 38.3799 788.793 24.8982C788.757 11.4973 798.095 1.21197 817.913 1.17832C833.229 1.15477 838.643 5.55893 838.667 11.5747C838.691 21.2847 818.009 31.6676 786.512 43.7564L786.692 43.8371L839.975 28.7439L840.155 28.8246C824.851 34.0665 815.32 38.4135 803.629 44.1298L803.809 44.2106C814.252 41.0648 837.658 35.9709 850.982 33.8647V33.9454C831.357 37.9896 804.901 47.5011 804.925 56.73C804.937 60.9827 808.73 63.7854 815.212 63.7753C830.348 63.7518 837.334 51.1415 838.03 43.2753H838.391C837.874 52.8238 843.492 63.7282 855.928 63.708C880.426 63.6676 886.644 31.56 886.596 17.0387C886.584 12.3856 885.468 1.07066 872.672 1.09421C856.816 1.12112 844.44 18.8724 844.488 35.7253C844.512 41.9833 846.889 54.0956 854.991 54.0855C865.446 54.0686 866.815 31.597 866.803 28.791C866.791 24.3767 866.767 17.8765 865.314 13.2267L865.494 13.1459C868.039 21.5673 873.284 27.4956 883.379 27.4822C886.98 27.4754 889.141 27.2332 894.362 26.0994L894.542 26.1801C887.892 31.6475 884.315 42.0035 884.327 46.1755C884.327 48.2615 884.892 52.272 888.853 52.2653C894.794 52.2552 898.9 37.1653 898.864 27.6134C898.839 19.1886 897.735 10.4442 892.478 2.34917L892.658 2.26843C902.393 2.5746 908.334 2.24487 917.877 1.02355L918.057 1.1043C905.669 15.7265 900.316 33.2288 900.352 43.9818C900.376 52.4873 904.193 63.634 920.229 63.6104C941.307 63.5768 944.668 42.2255 944.644 33.0807C944.62 24.1748 940.431 10.8614 933.553 1.08075L933.913 1C938.259 6.45053 948.581 27.3779 957.776 27.3611C960.297 27.3577 960.285 24.1479 960.285 23.2631C960.273 18.2869 957.368 12.8364 953.575 7.38587L953.935 7.30512C959 12.6715 966.574 18.5998 971.64 21.961L972 21.7995C964.054 15.6357 960.429 9.38103 956.804 2.16413" stroke="white" stroke-miterlimit="3" stroke-linecap="square"/>
</svg>
