<svg width="1530" height="648" viewBox="0 0 1530 648" fill="none" xmlns="http://www.w3.org/2000/svg">
<path fill-rule="evenodd" clip-rule="evenodd" d="M1060.97 625.028C1123.88 654.734 1197.93 654.734 1260.85 625.028L1406.47 556.265C1482.18 520.517 1530 447.442 1530 367.507V279.8C1530 199.865 1482.18 126.791 1406.47 91.0428L1260.85 22.2798C1197.93 -7.42661 1123.88 -7.4266 1060.97 22.2798L915.345 91.0428C839.638 126.791 791.816 199.865 791.816 279.8L791.816 367.507C791.816 447.442 839.638 520.517 915.345 556.265L1060.97 625.028ZM1306.29 229.09C1309.87 228.991 1313.49 228.941 1317.13 228.941H1362.68C1428.79 292.746 1422.5 386.785 1363.85 443.972C1348.38 418.056 1329.92 393.263 1316.41 375.114C1312.72 370.153 1309.39 365.689 1306.6 361.834C1296.45 347.808 1284.29 332.682 1270.64 317.181C1293.36 295.378 1306.6 266.91 1306.6 234.784C1306.6 232.991 1306.5 231.088 1306.29 229.09ZM1208.38 254.001C1231 274.544 1252.18 296.205 1270.64 317.181C1241.77 344.891 1197.59 361.834 1145.83 361.834C1053.35 361.834 944.679 316.578 944.679 217.507C944.679 183.987 967.758 147.314 1011.91 147.314C1059.76 147.282 1119.34 180.765 1174.52 225.046C1146.54 193.722 1137.79 175.252 1137.79 157.203C1137.79 133.715 1157.46 125.886 1181.52 125.886C1264.3 125.886 1302.51 192.95 1306.29 229.09C1262.63 230.294 1224.69 238.819 1208.38 254.001ZM1321.09 474.047C1337.45 465.979 1351.77 455.758 1363.85 443.972C1373.8 460.626 1382.52 477.745 1387.9 493.861H1338.77C1333.29 487.182 1327.4 480.562 1321.09 474.047ZM1321.09 474.047C1295.78 486.531 1265.56 493.861 1231.08 493.861C1153.07 493.861 1119.34 454.715 1112.1 420.221H1095.94C1103.22 431.29 1105.22 437.25 1105.22 445.443C1105.22 467.79 1080.64 493.861 1023.45 493.861C969.262 493.861 899.08 465.3 899.08 410.883C899.08 372.444 949.332 354.053 1020.72 353.994C1153.87 353.884 1257.9 408.732 1321.09 474.047Z" fill="black"/>
<path fill-rule="evenodd" clip-rule="evenodd" d="M0 158.506L128.227 29.0527H619.933L738.184 158.506V488.806L619.933 618.259H128.227L0 488.806V158.506ZM217.94 267.191C227.51 276.067 210.749 304.375 182.595 304.375C156.93 304.137 119.926 281.913 119.927 208.509C119.927 173.159 143.95 125.888 182.598 125.888C226.462 125.888 254.14 178.189 254.14 232.764C254.14 245.149 252.855 256.732 250.471 267.323C243.628 267.235 236.67 267.191 229.596 267.191H217.94ZM299.794 268.788C285.263 296.934 277.123 326.999 277.123 356.784C277.123 417.718 297.077 465.306 330.504 493.863H278.934H119.927V304.375C136.753 327.754 164.839 334.801 183.639 334.801C215.222 334.801 241.184 308.587 250.471 267.323C267.63 267.543 284.065 268.036 299.794 268.788ZM571.059 345.362C531.183 305.1 445.918 275.774 299.794 268.788C340.592 189.768 431.764 125.888 534.582 125.888C609.784 125.888 645.818 169.098 645.818 221.467C645.818 256.66 619.598 299.24 571.059 345.362ZM571.059 345.362C590.128 364.616 598.817 386.371 598.817 409.38C598.817 451.827 553.909 493.863 476.618 493.863H442.238H356.289C448.439 443.4 521.42 392.529 571.059 345.362Z" fill="black"/>
</svg>
